<svg width="150" height="48" viewBox="0 0 150 48" fill="none" xmlns="http://www.w3.org/2000/svg">
<rect width="150" height="48" rx="6" fill="#FF7010"/>
<path d="M42.3516 30V18.7266H33.5156V30H34.9297V20.0078H40.9609V30H42.3516ZM49.3125 21.4297C48.1641 21.4297 47.1562 22.0156 46.6172 22.9844H46.4922V21.5781H45.2109V32.8125H46.5547V28.7344H46.6797C47.1406 29.625 48.1094 30.1484 49.3125 30.1484C51.4531 30.1484 52.8516 28.4219 52.8516 25.7891C52.8516 23.1406 51.4609 21.4297 49.3125 21.4297ZM48.9922 28.9375C47.4766 28.9375 46.5156 27.7188 46.5156 25.7891C46.5156 23.8516 47.4766 22.6406 49 22.6406C50.5391 22.6406 51.4609 23.8203 51.4609 25.7891C51.4609 27.7578 50.5391 28.9375 48.9922 28.9375ZM58.5859 30.1484C60.9844 30.1484 62.4688 28.4922 62.4688 25.7891C62.4688 23.0781 60.9844 21.4297 58.5859 21.4297C56.1875 21.4297 54.7031 23.0781 54.7031 25.7891C54.7031 28.4922 56.1875 30.1484 58.5859 30.1484ZM58.5859 28.9375C56.9922 28.9375 56.0938 27.7812 56.0938 25.7891C56.0938 23.7891 56.9922 22.6406 58.5859 22.6406C60.1797 22.6406 61.0781 23.7891 61.0781 25.7891C61.0781 27.7812 60.1797 28.9375 58.5859 28.9375ZM68.125 22.7031C69.0703 22.7031 69.4922 23.1719 69.4922 23.875C69.4922 24.6641 69 25.0781 67.9062 25.0781H66.0703V22.7031H68.125ZM68.0234 26.2031C69.2344 26.2031 69.8594 26.6172 69.8594 27.5547C69.8594 28.4062 69.3125 28.875 68.2812 28.875H66.0703V26.2031H68.0234ZM64.7266 30H68.3125C70.125 30 71.1953 29.0469 71.1953 27.5781C71.1953 26.5625 70.5156 25.7812 69.4453 25.6328V25.5078C70.2344 25.3438 70.8203 24.5625 70.8203 23.7344C70.8203 22.4297 69.8906 21.5781 68.2969 21.5781H64.7266V30ZM76.7812 22.6172C78.1172 22.6172 79.0078 23.6016 79.0391 25.0938H74.3984C74.5 23.6016 75.4375 22.6172 76.7812 22.6172ZM79 27.8203C78.6484 28.5625 77.9141 28.9609 76.8281 28.9609C75.3984 28.9609 74.4688 27.9062 74.3984 26.2422V26.1797H80.4531V25.6641C80.4531 23.0469 79.0703 21.4297 76.7969 21.4297C74.4844 21.4297 73 23.1484 73 25.7969C73 28.4609 74.4609 30.1484 76.7969 30.1484C78.6406 30.1484 79.9375 29.2656 80.3438 27.8203H79ZM86.8125 21.4297C85.6641 21.4297 84.6562 22.0156 84.1172 22.9844H83.9922V21.5781H82.7109V32.8125H84.0547V28.7344H84.1797C84.6406 29.625 85.6094 30.1484 86.8125 30.1484C88.9531 30.1484 90.3516 28.4219 90.3516 25.7891C90.3516 23.1406 88.9609 21.4297 86.8125 21.4297ZM86.4922 28.9375C84.9766 28.9375 84.0156 27.7188 84.0156 25.7891C84.0156 23.8516 84.9766 22.6406 86.5 22.6406C88.0391 22.6406 88.9609 23.8203 88.9609 25.7891C88.9609 27.7578 88.0391 28.9375 86.4922 28.9375ZM93.9609 30L98.1562 23.7188H98.2812V30H99.625V21.5781H98.2812L94.0859 27.8594H93.9609V21.5781H92.6172V30H93.9609ZM108.406 21.5781H101.594V22.7031H104.328V30H105.672V22.7031H108.406V21.5781ZM113.375 25.4062C114.477 25.4062 115.195 26.0859 115.195 27.1406C115.195 28.1875 114.484 28.875 113.375 28.875H111.711V25.4062H113.375ZM110.367 30H113.375C115.305 30 116.539 28.8906 116.539 27.1406C116.539 25.3906 115.305 24.2812 113.375 24.2812H111.711V21.5781H110.367V30Z" fill="white"/>
</svg>
